<svg width="17" height="17" viewBox="0 0 17 17" fill="none" xmlns="http://www.w3.org/2000/svg">
<path fill-rule="evenodd" clip-rule="evenodd" d="M8.49984 0.166626C6.19775 0.166626 4.33317 2.03121 4.33317 4.33329C4.33317 6.63538 6.19775 8.49996 8.49984 8.49996C10.8019 8.49996 12.6665 6.63538 12.6665 4.33329C12.6665 2.03121 10.8019 0.166626 8.49984 0.166626ZM10.5832 4.33329C10.5832 3.18746 9.64567 2.24996 8.49984 2.24996C7.354 2.24996 6.4165 3.18746 6.4165 4.33329C6.4165 5.47913 7.354 6.41663 8.49984 6.41663C9.64567 6.41663 10.5832 5.47913 10.5832 4.33329ZM14.7498 13.7083C14.5415 12.9687 11.3123 11.625 8.49984 11.625C5.68734 11.625 2.45817 12.9687 2.24984 13.7187V14.75H14.7498V13.7083ZM0.166504 13.7083C0.166504 10.9375 5.71859 9.54163 8.49984 9.54163C11.2811 9.54163 16.8332 10.9375 16.8332 13.7083V16.8333H0.166504V13.7083Z" fill="#5F5F5F"/>
</svg>
