<svg width="99" height="40" viewBox="0 0 99 40" fill="none" xmlns="http://www.w3.org/2000/svg">
<rect width="99" height="40" rx="20" fill="#FAFAFA"/>
<path d="M29.8018 15.018C31.0151 15.018 32.0231 15.326 32.8258 15.942C33.6284 16.558 34.1698 17.3933 34.4498 18.448H32.7558C32.5224 17.8507 32.1491 17.3793 31.6358 17.034C31.1318 16.6793 30.5111 16.502 29.7738 16.502C29.1858 16.502 28.6584 16.6467 28.1918 16.936C27.7344 17.2253 27.3704 17.6407 27.0998 18.182C26.8384 18.714 26.7078 19.3393 26.7078 20.058C26.7078 20.7673 26.8384 21.3927 27.0998 21.934C27.3704 22.466 27.7344 22.8767 28.1918 23.166C28.6584 23.4553 29.1858 23.6 29.7738 23.6C30.5111 23.6 31.1318 23.4273 31.6358 23.082C32.1491 22.7273 32.5224 22.256 32.7558 21.668H34.4498C34.1698 22.7227 33.6284 23.558 32.8258 24.174C32.0231 24.7807 31.0151 25.084 29.8018 25.084C28.8684 25.084 28.0424 24.874 27.3238 24.454C26.6051 24.0247 26.0498 23.432 25.6578 22.676C25.2658 21.9107 25.0698 21.038 25.0698 20.058C25.0698 19.078 25.2658 18.21 25.6578 17.454C26.0498 16.6887 26.6051 16.0913 27.3238 15.662C28.0424 15.2327 28.8684 15.018 29.8018 15.018ZM39.1362 17.188C39.8362 17.188 40.4335 17.3607 40.9282 17.706C41.4228 18.0513 41.7728 18.5087 41.9782 19.078V17.286H43.5742V25H41.9782V23.208C41.7728 23.7773 41.4228 24.2347 40.9282 24.58C40.4335 24.9253 39.8362 25.098 39.1362 25.098C38.4642 25.098 37.8622 24.9393 37.3302 24.622C36.8075 24.3047 36.3968 23.8473 36.0982 23.25C35.7995 22.6527 35.6502 21.948 35.6502 21.136C35.6502 20.3333 35.7995 19.6333 36.0982 19.036C36.3968 18.4387 36.8075 17.9813 37.3302 17.664C37.8622 17.3467 38.4642 17.188 39.1362 17.188ZM39.6262 18.588C38.9168 18.588 38.3475 18.8167 37.9182 19.274C37.4982 19.722 37.2882 20.3427 37.2882 21.136C37.2882 21.9293 37.4982 22.5547 37.9182 23.012C38.3475 23.46 38.9168 23.684 39.6262 23.684C40.0742 23.684 40.4755 23.5813 40.8302 23.376C41.1848 23.1613 41.4648 22.8627 41.6702 22.48C41.8755 22.0973 41.9782 21.6493 41.9782 21.136C41.9782 20.632 41.8755 20.1887 41.6702 19.806C41.4648 19.414 41.1848 19.1153 40.8302 18.91C40.4755 18.6953 40.0742 18.588 39.6262 18.588ZM49.8014 17.16C50.6974 17.16 51.4161 17.4493 51.9574 18.028C52.4988 18.6067 52.7694 19.4327 52.7694 20.506V25H51.1734V20.674C51.1734 19.9833 50.9961 19.4513 50.6414 19.078C50.2868 18.6953 49.8014 18.504 49.1854 18.504C48.5508 18.504 48.0421 18.7093 47.6594 19.12C47.2768 19.5213 47.0854 20.114 47.0854 20.898V25H45.4894V17.286H47.0854V18.98C47.2908 18.4013 47.6361 17.9533 48.1214 17.636C48.6068 17.3187 49.1668 17.16 49.8014 17.16ZM58.0659 17.188C59.0646 17.188 59.8906 17.454 60.5439 17.986C61.1973 18.5087 61.6033 19.2227 61.7619 20.128H60.0679C59.9746 19.6427 59.7459 19.2647 59.3819 18.994C59.0273 18.714 58.5793 18.574 58.0379 18.574C57.4219 18.574 56.9086 18.7933 56.4979 19.232C56.0873 19.6613 55.8819 20.296 55.8819 21.136C55.8819 21.976 56.0873 22.6153 56.4979 23.054C56.9086 23.4927 57.4219 23.712 58.0379 23.712C58.5793 23.712 59.0273 23.572 59.3819 23.292C59.7459 23.012 59.9746 22.6293 60.0679 22.144H61.7619C61.6033 23.0493 61.1973 23.768 60.5439 24.3C59.8906 24.832 59.0646 25.098 58.0659 25.098C57.3193 25.098 56.6566 24.9393 56.0779 24.622C55.5086 24.3047 55.0606 23.8473 54.7339 23.25C54.4073 22.6527 54.2439 21.948 54.2439 21.136C54.2439 20.3333 54.4073 19.6333 54.7339 19.036C55.0606 18.4387 55.5086 17.9813 56.0779 17.664C56.6566 17.3467 57.3193 17.188 58.0659 17.188ZM70.4719 20.772C70.4719 21.0333 70.4532 21.262 70.4159 21.458H64.4799C64.5079 22.2513 64.7272 22.8393 65.1379 23.222C65.5486 23.6047 66.0572 23.796 66.6639 23.796C67.1959 23.796 67.6439 23.6607 68.0079 23.39C68.3812 23.1193 68.6099 22.76 68.6939 22.312H70.4019C70.2992 22.8533 70.0846 23.334 69.7579 23.754C69.4312 24.174 69.0066 24.5053 68.4839 24.748C67.9612 24.9813 67.3779 25.098 66.7339 25.098C65.9872 25.098 65.3246 24.9393 64.7459 24.622C64.1766 24.3047 63.7286 23.8473 63.4019 23.25C63.0752 22.6527 62.9119 21.948 62.9119 21.136C62.9119 20.3333 63.0752 19.6333 63.4019 19.036C63.7286 18.4387 64.1766 17.9813 64.7459 17.664C65.3246 17.3467 65.9872 17.188 66.7339 17.188C67.4899 17.188 68.1479 17.3467 68.7079 17.664C69.2772 17.972 69.7112 18.4013 70.0099 18.952C70.3179 19.4933 70.4719 20.1 70.4719 20.772ZM68.8619 20.73C68.8806 20.226 68.7919 19.806 68.5959 19.47C68.4092 19.1247 68.1479 18.8727 67.8119 18.714C67.4852 18.546 67.1259 18.462 66.7339 18.462C66.1086 18.462 65.5859 18.6533 65.1659 19.036C64.7459 19.4187 64.5172 19.9833 64.4799 20.73H68.8619ZM73.6089 14.64V25H72.0129V14.64H73.6089Z" fill="#313030"/>
</svg>
