<svg width="24" height="25" viewBox="0 0 24 25" fill="none" xmlns="http://www.w3.org/2000/svg">
<path fill-rule="evenodd" clip-rule="evenodd" d="M18.2961 12.5825C17.9561 13.1825 17.2961 13.5792 16.5461 13.5792H9.09609L7.99609 15.5147H19.9961V17.4502H7.99609C6.47609 17.4502 5.51609 15.8728 6.24609 14.576L7.59609 12.2147L3.99609 4.86957H1.99609V2.93408H5.26609L6.20609 4.86957H21.0061C21.7661 4.86957 22.2461 5.66311 21.8761 6.30182L18.2961 12.5825ZM19.3061 6.80505H7.15609L9.52609 11.6438H16.5461L19.3061 6.80505ZM7.99609 18.418C6.89609 18.418 6.00609 19.2889 6.00609 20.3534C6.00609 21.418 6.89609 22.2889 7.99609 22.2889C9.09609 22.2889 9.99609 21.418 9.99609 20.3534C9.99609 19.2889 9.09609 18.418 7.99609 18.418ZM16.0061 20.3534C16.0061 19.2889 16.8961 18.418 17.9961 18.418C19.0961 18.418 19.9961 19.2889 19.9961 20.3534C19.9961 21.418 19.0961 22.2889 17.9961 22.2889C16.8961 22.2889 16.0061 21.418 16.0061 20.3534Z" fill="#313030"/>
</svg>
