<svg width="65" height="64" viewBox="0 0 65 64" fill="none" xmlns="http://www.w3.org/2000/svg">
<g clip-path="url(#clip0)">
<path d="M46.3852 23.448C45.3452 22.4067 43.6545 22.4067 42.6145 23.448L31.1665 34.8947L26.3852 30.1147C25.3452 29.0733 23.6545 29.0733 22.6145 30.1147C21.5732 31.156 21.5732 32.844 22.6145 33.8853L29.2812 40.552C29.8012 41.0733 30.4838 41.3333 31.1665 41.3333C31.8492 41.3333 32.5318 41.0733 33.0518 40.552L46.3852 27.2187C47.4265 26.1773 47.4265 24.4893 46.3852 23.448Z" fill="#FECD00"/>
<path d="M61.8333 29.3333C60.3613 29.3333 59.1667 30.528 59.1667 32C59.1667 46.704 47.204 58.6667 32.5 58.6667C17.796 58.6667 5.83333 46.704 5.83333 32C5.83333 17.296 17.796 5.33333 32.5 5.33333C39.6587 5.33333 46.3787 8.13067 51.424 13.2107C52.46 14.2573 54.1493 14.2627 55.1947 13.224C56.24 12.1867 56.2453 10.4987 55.208 9.45333C49.1547 3.35733 41.0893 0 32.5 0C14.8547 0 0.5 14.3547 0.5 32C0.5 49.6453 14.8547 64 32.5 64C50.1453 64 64.5 49.6453 64.5 32C64.5 30.528 63.3053 29.3333 61.8333 29.3333Z" fill="#313030"/>
</g>
<defs>
<clipPath id="clip0">
<rect width="64" height="64" fill="white" transform="translate(0.5)"/>
</clipPath>
</defs>
</svg>
