<svg width="42" height="35" viewBox="0 0 42 35" fill="none" xmlns="http://www.w3.org/2000/svg">
<path d="M35.5938 17.369L35.1127 13.4759C34.8415 11.2823 33.9421 9.27236 32.5488 7.64929H35.7656C36.4452 7.64929 36.9961 7.09837 36.9961 6.41882V1.49695C36.9961 0.817401 36.4452 0.266479 35.7656 0.266479H30.8437C28.8083 0.266479 27.1523 1.92244 27.1523 3.95789V5.18835H24.6914C24.0119 5.18835 23.4609 5.73928 23.4609 6.41882C23.4609 7.09837 24.0119 7.64929 24.6914 7.64929H28.0456L28.6113 16.9077C28.712 18.5546 27.4082 19.954 25.7456 19.954H22.2305C21.552 19.954 21 19.402 21 18.7235V15.0321H21.7383C22.4178 15.0321 22.9687 14.4812 22.9687 13.8016V12.4071C22.9687 9.78366 20.8344 7.64929 18.2109 7.64929H14.8477V1.49695C14.8477 0.817401 14.2967 0.266479 13.6172 0.266479H1.3125C0.632953 0.266479 0.0820312 0.817401 0.0820312 1.49695C0.0824414 4.30332 0.0808818 13.6633 0.084081 13.7606C0.060538 14.4699 0.628359 15.0321 1.3125 15.0321H2.74435C0.035765 19.9718 0 25.8265 0 26.1063C0 26.7859 0.550922 27.3368 1.23047 27.3368H2.18589C1.90173 29.6046 2.81909 31.9179 4.6967 33.3607C9.22113 36.8374 15.9399 33.2037 15.2047 27.3368H27.2055C26.9213 29.6046 27.8387 31.9179 29.7163 33.3607C34.3307 36.9065 40.9484 33.1153 40.2243 27.3368H40.7695C41.4491 27.3368 42 26.7859 42 26.1063C42 22.0855 39.3113 18.6032 35.5938 17.369ZM29.6133 3.95789C29.6133 3.27941 30.1653 2.72742 30.8437 2.72742H34.5352V5.18835H29.6133V3.95789ZM18.2109 10.1102C19.4774 10.1102 20.5078 11.1406 20.5078 12.4071V12.5712H14.8477V10.1102H18.2109ZM6.23438 2.72742V5.18835C6.23438 5.8679 6.7853 6.41882 7.46484 6.41882C8.14439 6.41882 8.69531 5.8679 8.69531 5.18835V2.72742H12.3867V12.5712H2.54297V2.72742H6.23438ZM18.5391 15.0321V18.7235C18.5391 20.7589 20.195 22.4149 22.2305 22.4149H25.7456C28.8146 22.4149 31.255 19.8215 31.0677 16.7576L30.6036 9.16351C31.7289 10.4394 32.4548 12.0343 32.6703 13.7778L33.2516 18.4815C33.3149 18.9941 33.6917 19.4126 34.1948 19.5292C36.9187 20.1609 38.9337 22.346 39.4216 24.8758C33.8525 24.8758 23.9565 24.8758 18.4508 24.8758C17.8519 20.7073 14.2574 17.493 9.92578 17.493H4.27957C4.64978 16.6426 5.09562 15.8085 5.63186 15.0321H18.5391ZM2.52607 24.8758C2.61991 23.7307 2.84944 21.9107 3.40618 19.954H5.00391V21.1844C5.00391 21.864 5.55483 22.4149 6.23438 22.4149C6.91392 22.4149 7.46484 21.864 7.46484 21.1844V19.954H9.92578V21.1844C9.92578 21.864 10.4767 22.4149 11.1562 22.4149C11.8358 22.4149 12.3867 21.864 12.3867 21.1844V20.4692C14.1941 21.2614 15.551 22.8968 15.9543 24.8758C14.0187 24.8758 4.24413 24.8758 2.52607 24.8758ZM6.19615 31.4093C4.93754 30.4422 4.36915 28.8493 4.67742 27.3368H12.7131C13.4703 31.0521 9.19619 33.7146 6.19615 31.4093ZM36.214 31.4093C33.2192 33.7105 28.9384 31.059 29.697 27.3368H37.7327C38.041 28.8494 37.4725 30.4422 36.214 31.4093Z" fill="#313030"/>
<path fill-rule="evenodd" clip-rule="evenodd" d="M14.8511 7.64349V1.49115C14.8511 0.811603 14.3002 0.260681 13.6206 0.260681H1.31595C0.6364 0.260681 0.0854786 0.811603 0.0854786 1.49115C0.0855947 2.28522 0.0855531 3.60398 0.0855063 5.08915C0.0853876 8.8528 0.0852353 13.6851 0.0875292 13.7548C0.0639863 14.4641 0.631807 15.0263 1.31595 15.0263H2.7478H4.39031H5.6353H12.8511C13.9557 15.0263 14.8511 14.1309 14.8511 13.0263V12.5654V10.1044V7.64349ZM6.23782 5.18256V2.72162H2.54642V12.5654H12.3902V2.72162H8.69876V5.18256C8.69876 5.8621 8.14784 6.41302 7.46829 6.41302C6.78874 6.41302 6.23782 5.8621 6.23782 5.18256Z" fill="#FECD00"/>
</svg>
