<svg width="25" height="24" viewBox="0 0 25 24" fill="none" xmlns="http://www.w3.org/2000/svg">
<g id="local_shipping_24px">
<path id="icon/maps/local_shipping_24px" fill-rule="evenodd" clip-rule="evenodd" d="M20.875 8H17.875V4H3.875C2.775 4 1.875 4.9 1.875 6V17H3.875C3.875 18.66 5.215 20 6.875 20C8.535 20 9.875 18.66 9.875 17H15.875C15.875 18.66 17.215 20 18.875 20C20.535 20 21.875 18.66 21.875 17H23.875V12L20.875 8ZM20.375 9.5L22.335 12H17.875V9.5H20.375ZM5.875 17C5.875 17.55 6.325 18 6.875 18C7.425 18 7.875 17.55 7.875 17C7.875 16.45 7.425 16 6.875 16C6.325 16 5.875 16.45 5.875 17ZM9.095 15C8.545 14.39 7.765 14 6.875 14C5.985 14 5.205 14.39 4.655 15H3.875V6H15.875V15H9.095ZM17.875 17C17.875 17.55 18.325 18 18.875 18C19.425 18 19.875 17.55 19.875 17C19.875 16.45 19.425 16 18.875 16C18.325 16 17.875 16.45 17.875 17Z" fill="black" fill-opacity="0.54"/>
</g>
</svg>
