<svg width="14" height="18" viewBox="0 0 14 18" fill="none" xmlns="http://www.w3.org/2000/svg">
<path fill-rule="evenodd" clip-rule="evenodd" d="M11.9997 6.08333H11.1663V4.41667C11.1663 2.11667 9.29967 0.25 6.99967 0.25C4.69967 0.25 2.83301 2.11667 2.83301 4.41667V6.08333H1.99967C1.08301 6.08333 0.333008 6.83333 0.333008 7.75V16.0833C0.333008 17 1.08301 17.75 1.99967 17.75H11.9997C12.9163 17.75 13.6663 17 13.6663 16.0833V7.75C13.6663 6.83333 12.9163 6.08333 11.9997 6.08333ZM4.49967 4.41667C4.49967 3.03333 5.61634 1.91667 6.99967 1.91667C8.38301 1.91667 9.49967 3.03333 9.49967 4.41667V6.08333H4.49967V4.41667ZM8.66634 11.9167C8.66634 12.8333 7.91634 13.5833 6.99967 13.5833C6.08301 13.5833 5.33301 12.8333 5.33301 11.9167C5.33301 11 6.08301 10.25 6.99967 10.25C7.91634 10.25 8.66634 11 8.66634 11.9167Z" fill="white"/>
</svg>
