<svg width="40" height="40" viewBox="0 0 40 40" fill="none" xmlns="http://www.w3.org/2000/svg">
<path d="M1.21297 37.6562H2.38461V12.4333C0.956406 11.5759 0 10.0217 0 8.25047C0 7.43469 0.207344 6.62672 0.599533 5.91406L3.24172 0.647969C3.44016 0.250859 3.84586 0 4.28976 0H35.5462C35.9795 0 36.3774 0.239141 36.5808 0.621719L39.4661 6.06336C39.8072 6.73828 39.9873 7.4918 39.9873 8.25047C39.9873 9.99914 39.0546 11.5354 37.6566 12.3995V37.6562H38.8283C39.4754 37.6562 40 38.1809 40 38.8281C40 39.4753 39.4754 40 38.8283 40H1.21289C0.565781 40 0.0412521 39.4753 0.0412521 38.8281C0.0412521 38.1809 0.565861 37.6562 1.21297 37.6562ZM34.8422 2.34375H5.01406L2.58625 7.17391C2.42524 7.51047 2.34336 7.8718 2.34336 8.25047C2.34336 9.65336 3.50641 10.7947 4.9361 10.7947C6.36578 10.7947 7.52883 9.65336 7.52883 8.25047C7.52883 7.60328 8.05344 7.07859 8.70047 7.07859C9.34758 7.07859 9.87211 7.60328 9.87211 8.25047C9.87211 9.65336 11.0352 10.7947 12.4648 10.7947C13.8945 10.7947 15.0575 9.65336 15.0575 8.25047C15.0575 7.60328 15.5821 7.07859 16.2291 7.07859C16.8762 7.07859 17.4008 7.60328 17.4008 8.25047C17.4008 9.65336 18.5638 10.7947 19.9935 10.7947C21.4231 10.7947 22.5863 9.65336 22.5863 8.25047C22.5863 7.60328 23.1109 7.07859 23.7579 7.07859C24.405 7.07859 24.9295 7.60328 24.9295 8.25047C24.9295 9.65336 26.0927 10.7947 27.5223 10.7947C28.9519 10.7947 30.1149 9.65336 30.1149 8.25047C30.1149 7.60328 30.6395 7.07859 31.2866 7.07859C31.9336 7.07859 32.4582 7.60328 32.4582 8.25047C32.4582 9.65336 33.6213 10.7947 35.0509 10.7947C36.4805 10.7947 37.6437 9.65336 37.6437 8.25047C37.6437 7.83195 37.5439 7.43391 37.3471 7.06727L34.8422 2.34375ZM35.3133 13.1315C35.2265 13.136 35.1391 13.1385 35.0512 13.1385C33.5444 13.1385 32.193 12.4663 31.2869 11.409C30.3807 12.4664 29.0294 13.1385 27.5225 13.1385C26.0156 13.1385 24.6642 12.4663 23.7581 11.4089C22.852 12.4663 21.5006 13.1385 19.9938 13.1385C18.4868 13.1385 17.1355 12.4663 16.2294 11.4089C15.3232 12.4663 13.9719 13.1385 12.465 13.1385C10.9581 13.1385 9.6068 12.4663 8.7007 11.409C7.79453 12.4664 6.4432 13.1385 4.93633 13.1385C4.86656 13.1385 4.79734 13.1362 4.7282 13.1333V37.6562H35.3133V13.1315Z" fill="#313030"/>
<path d="M19.9978 15.1528C24.4576 15.1528 28.0859 18.7817 28.0859 23.2422C28.0859 25.1038 26.8809 27.6576 24.402 31.0495C22.6549 33.44 20.9344 35.3251 20.862 35.4042C20.6402 35.6466 20.3266 35.7847 19.9978 35.7847C19.6691 35.7847 19.3555 35.6466 19.1336 35.4042C19.0612 35.325 17.3408 33.4399 15.5937 31.0495C13.1147 27.6576 11.9097 25.1039 11.9097 23.2422C11.9097 18.7817 15.538 15.1528 19.9978 15.1528ZM19.998 32.845C22.5095 29.9206 25.7426 25.4276 25.7426 23.2422C25.7426 20.074 23.1655 17.4966 19.9978 17.4966C16.8302 17.4966 14.253 20.074 14.253 23.2422C14.253 25.4246 17.4865 29.9192 19.998 32.845Z" fill="#FECD00"/>
<path d="M19.9981 19.8402C21.8736 19.8402 23.3994 21.3663 23.3994 23.2422C23.3994 25.118 21.8736 26.644 19.9981 26.644C18.1225 26.644 16.5967 25.118 16.5967 23.2422C16.5967 21.3663 18.1225 19.8402 19.9981 19.8402ZM19.9981 24.3003C20.5814 24.3003 21.0561 23.8256 21.0561 23.2422C21.0561 22.6587 20.5814 22.184 19.9981 22.184C19.4147 22.184 18.94 22.6587 18.94 23.2422C18.94 23.8256 19.4147 24.3003 19.9981 24.3003Z" fill="#FECD00"/>
</svg>
