<svg width="43" height="43" viewBox="0 0 43 43" fill="none" xmlns="http://www.w3.org/2000/svg">
<g clip-path="url(#clip0)">
<path d="M32.7731 8.67564L33.464 8.98099C34.6798 9.51854 35.86 8.14744 35.1478 7.02498L31.0869 0.626132C30.7874 0.154322 30.2282 -0.0842796 29.6805 0.0270567L13.8297 3.23862C13.3689 3.332 12.9834 3.66095 12.8247 4.11481L9.94967 12.3293L7.39357 17.5948C7.19635 18.0012 7.25822 16.2189 7.25822 39.629C7.25822 40.2631 7.70002 40.8116 8.31966 40.9466C18.2525 43.1056 17.7242 42.9976 17.9308 42.9976C18.1716 42.9976 17.1098 43.239 34.7244 38.9185C35.3275 38.7706 35.7516 38.2298 35.7516 37.6087V19.9141C35.7516 15.2758 34.3785 12.5676 32.7731 8.67564ZM29.3068 2.85454L30.502 4.73791C29.8962 4.56732 29.239 4.84073 28.9409 5.41494L28.0226 7.18309L26.5279 6.27453C25.9551 5.92636 25.2135 6.05178 24.7871 6.56901L23.3982 8.25355L21.7658 7.0399C21.2289 6.64074 20.4806 6.69552 20.0077 7.16851L18.7453 8.43088L16.4754 5.45455L29.3068 2.85454ZM13.4189 10.5812L13.5863 12.0669C13.6335 12.4869 15.3596 16.9117 15.8084 18.3726L10.5682 17.2309C12.93 12.3655 12.1897 14.093 13.4189 10.5812ZM9.95515 38.5426V19.8576L16.4368 21.2698C16.5703 22.3023 16.5303 20.7053 16.5303 39.975L9.95515 38.5426ZM33.0546 36.5509L19.2793 39.9298V23.5287C19.2793 19.256 18.1911 16.9652 16.2486 11.6063L15.9839 9.25727L17.5361 11.2926C18.0304 11.9408 18.9844 12.0058 19.5619 11.4284L21.0913 9.89899L22.8182 11.1829C23.3946 11.6115 24.2062 11.513 24.6633 10.9587L26.1251 9.18571L27.8544 10.2368C28.5215 10.6423 29.3924 10.3977 29.7516 9.70598L30.0466 9.13801C31.7951 13.3769 32.0229 13.8298 32.3918 15.1315L23.3755 17.6944C22.6591 17.898 22.2434 18.6438 22.4472 19.3602C22.6157 19.9534 23.156 20.3403 23.7436 20.3403C24.022 20.3403 23.3385 20.5087 32.9263 17.7834C33.1023 19.2351 33.0546 18.5917 33.0546 36.5509Z" fill="#313030"/>
<rect x="20.4761" y="18.1619" width="14.3333" height="3.07143" rx="1.53571" transform="rotate(-15.4923 20.4761 18.1619)" fill="#FECD00"/>
</g>
<defs>
<clipPath id="clip0">
<rect width="43" height="43" fill="white"/>
</clipPath>
</defs>
</svg>
