<svg width="42" height="41" viewBox="0 0 42 41" fill="none" xmlns="http://www.w3.org/2000/svg">
<path d="M10.7266 22.4696V30.2692H20.4013V22.4696H10.7266ZM17.9404 27.8669H13.1875V24.8719H17.9404V27.8669Z" fill="#FECD00"/>
<path d="M35.9471 32.3471V19.7948C37.1807 19.0372 38.0018 17.6952 38.0018 16.1705V12.6487L34.2792 1.57788H7.72078L3.9982 12.6487V16.1705C3.9982 17.6951 4.81925 19.0372 6.05292 19.7948V32.3471H0V39.422H42V32.3471H35.9471ZM22.6439 22.4699V32.347H8.51386V20.4483C8.51378 20.4483 8.51394 20.4483 8.51386 20.4483C9.69839 20.4147 10.7674 19.919 11.5377 19.1406C12.335 19.9478 13.4539 20.4507 14.6918 20.4507C15.9288 20.4507 17.0469 19.9478 17.8459 19.1414C18.6449 19.9478 19.763 20.4507 21 20.4507C22.237 20.4507 23.3551 19.9478 24.1541 19.1414C24.9531 19.9478 26.0712 20.4507 27.3082 20.4507C28.5461 20.4507 29.665 19.9478 30.4631 19.1406C31.2326 19.919 32.3014 20.4147 33.486 20.4483C33.4859 20.4483 33.4861 20.4483 33.486 20.4483L33.4861 32.347H31.2733V22.4699H22.6439ZM28.8123 24.8722V32.347H25.1048V24.8722H28.8123ZM12.7673 16.1705V14.2927H16.6154V16.1705C16.6154 17.2059 15.7525 18.0483 14.6918 18.0483C13.6303 18.0483 12.7673 17.2059 12.7673 16.1705ZM19.0764 16.1705V14.2927H22.9236V16.1705C22.9236 17.2059 22.0607 18.0483 21 18.0483C19.9393 18.0483 19.0764 17.2059 19.0764 16.1705ZM25.3846 16.1705V14.2927H29.2327V16.1705C29.2327 17.2059 28.3697 18.0483 27.3082 18.0483C26.2475 18.0483 25.3846 17.2059 25.3846 16.1705ZM31.6936 16.1705V14.2927H35.5409V16.1705C35.5409 17.2059 34.6779 18.0483 33.6172 18.0483C32.5566 18.0483 31.6936 17.2059 31.6936 16.1705ZM9.50332 3.98022H32.4967L35.157 11.8903H6.84305L9.50332 3.98022ZM6.45914 14.2927H10.3064V16.1705C10.3064 17.2059 9.44344 18.0483 8.38277 18.0483C7.32211 18.0483 6.45914 17.2059 6.45914 16.1705V14.2927ZM39.5391 37.0197H2.46094V34.7494H39.5391V37.0197Z" fill="#313030"/>
</svg>
