<svg width="18" height="18" viewBox="0 0 18 18" fill="none" xmlns="http://www.w3.org/2000/svg">
<path fill-rule="evenodd" clip-rule="evenodd" d="M9 1.5C11.4825 1.5 13.5 3.5175 13.5 6C13.5 9.375 9 14.25 9 14.25C9 14.25 4.5 9.375 4.5 6C4.5 3.5175 6.5175 1.5 9 1.5ZM14.25 16.5V15H3.75V16.5H14.25ZM6 6C6 4.3425 7.3425 3 9 3C10.6575 3 12 4.3425 12 6C12 7.5975 10.44 10.095 9 11.9325C7.56 10.1025 6 7.5975 6 6ZM7.5 6C7.5 5.175 8.175 4.5 9 4.5C9.825 4.5 10.5 5.175 10.5 6C10.5 6.825 9.8325 7.5 9 7.5C8.175 7.5 7.5 6.825 7.5 6Z" fill="#313030"/>
</svg>
