<svg width="65" height="64" viewBox="0 0 65 64" fill="none" xmlns="http://www.w3.org/2000/svg">
<g clip-path="url(#clip0)">
<path d="M61.8333 29.3333C60.3613 29.3333 59.1667 30.528 59.1667 32C59.1667 46.704 47.204 58.6667 32.5 58.6667C17.796 58.6667 5.83333 46.704 5.83333 32C5.83333 17.296 17.796 5.33333 32.5 5.33333C39.6587 5.33333 46.3787 8.13067 51.424 13.2107C52.46 14.2573 54.1493 14.2627 55.1947 13.224C56.24 12.1867 56.2453 10.4987 55.208 9.45333C49.1547 3.35733 41.0893 0 32.5 0C14.8547 0 0.5 14.3547 0.5 32C0.5 49.6453 14.8547 64 32.5 64C50.1453 64 64.5 49.6453 64.5 32C64.5 30.528 63.3053 29.3333 61.8333 29.3333Z" fill="#313030"/>
<path d="M32.2569 38.8889C30.8171 38.8889 29.6514 40.0888 29.6514 41.5287C29.6514 42.9343 30.7827 44.1686 32.2569 44.1686C33.731 44.1686 34.8967 42.9344 34.8967 41.5287C34.8967 40.0888 33.6968 38.8889 32.2569 38.8889Z" fill="#FECD00"/>
<path d="M32.703 18.9016C28.0748 18.9016 25.9492 21.6442 25.9492 23.4955C25.9492 24.8327 27.0805 25.4497 28.0062 25.4497C29.8574 25.4497 29.1032 22.8099 32.6001 22.8099C34.3143 22.8099 35.6857 23.5642 35.6857 25.1412C35.6857 26.9926 33.7658 28.0553 32.6344 29.0153C31.6403 29.8723 30.3375 31.278 30.3375 34.2263C30.3375 36.009 30.8174 36.5233 32.223 36.5233C33.9029 36.5233 34.2457 35.7691 34.2457 35.1177C34.2457 33.335 34.2801 32.3065 36.1657 30.8323C37.0913 30.1124 40.0054 27.7811 40.0054 24.5584C40.0054 21.3358 37.0913 18.9016 32.703 18.9016Z" fill="#FECD00"/>
</g>
<defs>
<clipPath id="clip0">
<rect width="64" height="64" fill="white" transform="translate(0.5)"/>
</clipPath>
</defs>
</svg>
