<svg width="64" height="64" viewBox="0 0 64 64" fill="none" xmlns="http://www.w3.org/2000/svg">
<path d="M61.3333 29.3333C59.8613 29.3333 58.6667 30.528 58.6667 32C58.6667 46.704 46.704 58.6667 32 58.6667C17.296 58.6667 5.33333 46.704 5.33333 32C5.33333 17.296 17.296 5.33333 32 5.33333C39.1587 5.33333 45.8787 8.13067 50.924 13.2107C51.96 14.2573 53.6493 14.2627 54.6947 13.224C55.74 12.1867 55.7453 10.4987 54.708 9.45333C48.6547 3.35733 40.5893 0 32 0C14.3547 0 0 14.3547 0 32C0 49.6453 14.3547 64 32 64C49.6453 64 64 49.6453 64 32C64 30.528 62.8053 29.3333 61.3333 29.3333Z" fill="#313030"/>
</svg>
