<svg width="56" height="55" viewBox="0 0 56 55" fill="none" xmlns="http://www.w3.org/2000/svg">
<mask id="path-1-inside-1" fill="white">
<path d="M44.4199 29.3799V45.5916C44.4199 46.2489 44.3729 46.9062 44.2803 47.5548C44.1864 48.2047 44.048 48.8471 43.8639 49.4784C43.6008 50.3754 43.4031 51.2884 43.2721 52.2113C43.1399 53.1329 43.0732 54.0645 43.0732 54.9997H23.9915V52.0642C23.9915 51.5898 23.8556 51.1376 23.6097 50.7534C23.3663 50.3692 23.0142 50.0517 22.5855 49.8503C22.1717 49.6551 21.633 49.3215 21.1302 48.9879C20.1949 48.3665 19.4487 47.498 18.9718 46.4812L15.767 39.6441C15.2185 38.4754 15.405 37.0929 16.2439 36.1107L17.3373 34.8295C17.9723 34.087 18.2589 33.1073 18.128 32.1399C18.1119 32.025 18.1033 31.9101 18.1033 31.7977C18.1033 30.4399 19.2065 29.3021 20.6051 29.3021C20.7299 29.3021 20.8534 29.307 20.9757 29.3194C21.4427 29.3589 21.8887 29.4775 22.2989 29.6603V13.0508C22.2989 12.2601 22.6189 11.546 23.1378 11.0271C23.6554 10.5107 24.3708 10.1907 25.1615 10.1907C26.7404 10.1907 28.0216 11.4706 28.0216 13.0508V26.1183C28.0216 25.3276 28.3416 24.6135 28.8592 24.0946C29.3781 23.5769 30.0922 23.2569 30.8829 23.2569C32.4631 23.2569 33.743 24.5381 33.743 26.1183V28.0913C33.743 27.3018 34.063 26.5865 34.5807 26.0689C35.0983 25.5512 35.8149 25.2312 36.6043 25.2312C38.1845 25.2312 39.4657 26.5111 39.4657 28.0913V29.4355C39.4657 28.074 40.5418 26.925 41.9032 26.9028C42.6038 26.8917 43.2375 27.1721 43.6947 27.628C44.1419 28.0765 44.4199 28.6967 44.4199 29.3799Z"/>
</mask>
<path d="M44.4199 29.3799V45.5916C44.4199 46.2489 44.3729 46.9062 44.2803 47.5548C44.1864 48.2047 44.048 48.8471 43.8639 49.4784C43.6008 50.3754 43.4031 51.2884 43.2721 52.2113C43.1399 53.1329 43.0732 54.0645 43.0732 54.9997H23.9915V52.0642C23.9915 51.5898 23.8556 51.1376 23.6097 50.7534C23.3663 50.3692 23.0142 50.0517 22.5855 49.8503C22.1717 49.6551 21.633 49.3215 21.1302 48.9879C20.1949 48.3665 19.4487 47.498 18.9718 46.4812L15.767 39.6441C15.2185 38.4754 15.405 37.0929 16.2439 36.1107L17.3373 34.8295C17.9723 34.087 18.2589 33.1073 18.128 32.1399C18.1119 32.025 18.1033 31.9101 18.1033 31.7977C18.1033 30.4399 19.2065 29.3021 20.6051 29.3021C20.7299 29.3021 20.8534 29.307 20.9757 29.3194C21.4427 29.3589 21.8887 29.4775 22.2989 29.6603V13.0508C22.2989 12.2601 22.6189 11.546 23.1378 11.0271C23.6554 10.5107 24.3708 10.1907 25.1615 10.1907C26.7404 10.1907 28.0216 11.4706 28.0216 13.0508V26.1183C28.0216 25.3276 28.3416 24.6135 28.8592 24.0946C29.3781 23.5769 30.0922 23.2569 30.8829 23.2569C32.4631 23.2569 33.743 24.5381 33.743 26.1183V28.0913C33.743 27.3018 34.063 26.5865 34.5807 26.0689C35.0983 25.5512 35.8149 25.2312 36.6043 25.2312C38.1845 25.2312 39.4657 26.5111 39.4657 28.0913V29.4355C39.4657 28.074 40.5418 26.925 41.9032 26.9028C42.6038 26.8917 43.2375 27.1721 43.6947 27.628C44.1419 28.0765 44.4199 28.6967 44.4199 29.3799Z" stroke="white" stroke-width="4" mask="url(#path-1-inside-1)"/>
<path d="M25.964 0H24.3579V6.03487H25.964V0Z" fill="white"/>
<path d="M29.8599 7.70539L30.9956 8.84106L35.2629 4.57381L34.1272 3.43813L29.8599 7.70539Z" fill="white"/>
<path d="M38.6037 12.7771H32.5688V14.3832H38.6037V12.7771Z" fill="white"/>
<path d="M17.6153 12.6396H11.5806V14.2457H17.6153V12.6396Z" fill="white"/>
<path d="M15.0189 4.47664L19.2861 8.7439L20.4218 7.60822L16.1546 3.34097L15.0189 4.47664Z" fill="white"/>
</svg>
