<svg width="21" height="25" viewBox="0 0 21 25" fill="none" xmlns="http://www.w3.org/2000/svg">
<path d="M1.15823 3.41577C0.790896 4.40848 0.378764 5.4063 0.249951 6.46153C0.128747 7.45317 0.3662 8.17431 0.865978 9.02376C1.36688 9.87525 2.24549 11.1236 3.2998 11.6963V25H5.67907V11.7102C6.74503 11.1441 7.63416 9.8824 8.13919 9.02386C8.63902 8.17442 8.87627 7.45328 8.75527 6.46164C8.62631 5.40641 8.21433 4.40859 7.84699 3.41592C7.5578 2.63446 6.9814 0.692707 5.91703 0.572269L6.55145 6.27689H5.75839L5.12372 0.549438H4.50248H3.8812L3.24678 6.27679H2.45373L3.08814 0.572116C2.02382 0.692553 1.44753 2.63431 1.15823 3.41577Z" fill="#AFAFAF"/>
<path d="M17.3431 25V11.9093C19.3213 11.2975 20.7804 9.1805 20.7804 6.66209C20.7804 3.66552 18.7148 0 16.1668 0C13.6187 0 11.5532 3.66552 11.5532 6.66209C11.5532 9.16905 12.9994 11.278 14.964 11.9004V25H17.3431Z" fill="#AFAFAF"/>
</svg>
