<svg width="1024" height="1024" viewBox="0 0 1024 1024" fill="none" xmlns="http://www.w3.org/2000/svg">
<rect width="1024" height="1024" rx="180" fill="#FECD00"/>
<path d="M370.786 647.655C396.443 638.248 421.005 642.079 399.385 674.133C377.765 706.221 363.089 775.254 418.884 798.961C474.678 822.667 508.134 797.558 534.646 738.274C561.158 678.99 559.756 616.935 614.832 545.815C622.871 535.416 617.637 529.771 602.277 533.979C586.952 538.153 531.157 552.11 430.72 552.11C330.283 552.11 217.359 491.458 217.359 401.488C217.359 311.519 374.959 195.072 572.994 195.072C679.692 195.072 806.641 239.031 806.641 313.64C806.641 388.249 707.606 399.402 674.116 399.402C612.745 399.402 505.364 365.911 505.364 305.977C505.364 277.379 536.733 268.313 559.756 268.313C567.418 268.313 568.137 272.521 566.05 278.781C563.929 285.076 561.877 352.707 651.127 352.707C732.031 352.707 732.715 312.237 732.715 303.891C732.715 295.509 711.814 236.944 577.202 236.944C442.59 236.944 317.797 299.683 317.797 396.631C317.797 493.578 457.266 501.925 485.865 501.925C514.463 501.925 597.454 497.034 716.706 440.555C723.89 437.134 739.01 432.892 729.26 451.023C719.477 469.153 678.905 531.756 646.27 605.133C621.16 661.612 614.592 687.064 606.519 710.462C592.596 750.726 545.046 828.928 439.443 828.928C333.806 828.893 271.512 684.087 370.786 647.655Z" fill="white"/>
</svg>
